<svg width="20" height="28" viewBox="0 0 20 28" fill="none" xmlns="http://www.w3.org/2000/svg">
<path d="M9.19602 27.8942C7.56676 27.8942 6.11269 27.4781 4.83381 26.646C3.56368 25.805 2.5651 24.6094 1.83807 23.0589C1.11979 21.4998 0.760654 19.6296 0.760654 17.4485C0.760654 15.2674 1.12417 13.4016 1.85121 11.8512C2.587 10.3008 3.59434 9.11387 4.87322 8.29048C6.15211 7.46709 7.6018 7.0554 9.2223 7.0554C10.4749 7.0554 11.4822 7.26562 12.2443 7.68608C13.0152 8.09777 13.6108 8.57954 14.0312 9.13139C14.4605 9.68324 14.7933 10.1694 15.0298 10.5898H15.2663V0.590908H19.195V27.5H15.3583V24.3597H15.0298C14.7933 24.7889 14.4517 25.2795 14.005 25.8313C13.567 26.3832 12.9626 26.8649 12.1918 27.2766C11.4209 27.6883 10.4223 27.8942 9.19602 27.8942ZM10.0632 24.5437C11.1932 24.5437 12.148 24.2459 12.9276 23.6502C13.7159 23.0458 14.3116 22.2093 14.7145 21.1406C15.1262 20.072 15.332 18.8281 15.332 17.4091C15.332 16.0076 15.1306 14.7812 14.7276 13.7301C14.3247 12.679 13.7334 11.86 12.9538 11.2731C12.1742 10.6862 11.2107 10.3928 10.0632 10.3928C8.88068 10.3928 7.89524 10.6993 7.10689 11.3125C6.31854 11.9257 5.72289 12.7622 5.31996 13.8221C4.92578 14.882 4.72869 16.0777 4.72869 17.4091C4.72869 18.758 4.93016 19.9712 5.3331 21.0487C5.73603 22.1261 6.33168 22.9801 7.12003 23.6108C7.91714 24.2327 8.8982 24.5437 10.0632 24.5437Z" fill="white"/>
</svg>
